<?xml version="1.0"?>
<svg xmlns="http://www.w3.org/2000/svg" id="Outline" viewBox="0 0 512 512" width="512" height="512"><path d="M495.956,184.837A8,8,0,0,0,488,176H442.422L440,174.385V152c0-74.99-61.009-136-136-136A136,136,0,0,0,168,152v22.385L165.578,176H120a8,8,0,0,0-7.956,8.837L121.214,272H104v-8a8,8,0,0,0-5.029-7.428l-40-16A8,8,0,0,0,56,240H24a8,8,0,0,0-8,8v32a8,8,0,0,0,8,8H37.708a39.684,39.684,0,0,0-7.957,20.933l-11.077,144A40,40,0,0,0,58.556,496H488a8,8,0,0,0,8-8V328a8,8,0,0,0-3-6.247l-11.241-8.993.727.077ZM176,188.281l16-10.666,16,10.666V240H176ZM218.422,176,216,174.385V152a88,88,0,0,1,176,0v22.385L389.578,176ZM400,188.281l16-10.666,16,10.666V240H400ZM184,152a120,120,0,0,1,240,0v11.719l-3.562-2.375a8,8,0,0,0-8.876,0L408,163.719V152a104,104,0,0,0-208,0v11.719l-3.562-2.375a8,8,0,0,0-8.876,0L184,163.719ZM144,320h48a8,8,0,0,0,8-8V288h66.367A24.11,24.11,0,0,1,290.3,310.159L298.438,416H37.562L45.7,310.159A24.11,24.11,0,0,1,69.633,288H136v24A8,8,0,0,0,144,320Zm40-16H152V288h32ZM32,256H54.459L88,269.416V272H32ZM277.44,480H58.556a24,24,0,0,1-23.929-25.841L36.332,432H299.668l1.7,22.159A24,24,0,0,1,277.444,480ZM480,480H368V331.845L402.806,304h42.388L480,331.845ZM453,289.753A8,8,0,0,0,448,288H400a8,8,0,0,0-5,1.753l-40,32A8,8,0,0,0,352,328V480H309.441a40.135,40.135,0,0,0,7.885-27.067l-11.077-144A40.185,40.185,0,0,0,266.367,272H137.3l-8.417-80H160v56a8,8,0,0,0,8,8h48a8,8,0,0,0,8-8V192H384v56a8,8,0,0,0,8,8h48a8,8,0,0,0,8-8V192h31.114L467.6,301.432Z"/><path d="M328,208H280a8,8,0,0,0-8,8v32a8,8,0,0,0,8,8h48a8,8,0,0,0,8-8V216A8,8,0,0,0,328,208Zm-8,32H288V224h32Z"/><path d="M424,384a8.009,8.009,0,0,1,8,8,8,8,0,0,0,16,0,24.039,24.039,0,0,0-16-22.624V360a8,8,0,0,0-16,0v9.376A24,24,0,0,0,424,416a8,8,0,1,1-8,8,8,8,0,0,0-16,0,24.039,24.039,0,0,0,16,22.624V456a8,8,0,0,0,16,0v-9.376A24,24,0,0,0,424,400a8,8,0,0,1,0-16Z"/><circle cx="424" cy="328" r="8"/></svg>
