<?xml version="1.0" encoding="iso-8859-1"?>
<!-- Generator: Adobe Illustrator 19.0.0, SVG Export Plug-In . SVG Version: 6.00 Build 0)  -->
<svg version="1.1" id="Capa_1" xmlns="http://www.w3.org/2000/svg" xmlns:xlink="http://www.w3.org/1999/xlink" x="0px" y="0px"
	 viewBox="0 0 512 512" style="enable-background:new 0 0 512 512;" xml:space="preserve">
<g>
	<g>
		<g>
			<path d="M469.333,29.867H42.667C19.114,29.894,0.028,48.981,0,72.533v332.8c0.028,20.265,14.283,37.724,34.133,41.804v9.396
				c0.015,14.132,11.468,25.585,25.6,25.6h51.2c14.132-0.015,25.585-11.468,25.6-25.6V448h238.933v8.533
				c0.015,14.132,11.468,25.585,25.6,25.6h51.2c14.132-0.015,25.585-11.468,25.6-25.6v-9.396
				c19.85-4.08,34.105-21.539,34.133-41.804v-332.8C511.972,48.981,492.886,29.894,469.333,29.867z M119.467,456.533
				c-0.006,4.71-3.823,8.527-8.533,8.533h-51.2c-4.71-0.006-8.527-3.823-8.533-8.533V448h68.267V456.533z M460.8,456.533
				c-0.006,4.71-3.823,8.527-8.533,8.533h-51.2c-4.71-0.006-8.527-3.823-8.533-8.533V448H460.8V456.533z M494.933,405.333
				c-0.015,14.132-11.468,25.585-25.6,25.6H42.667c-14.132-0.015-25.585-11.468-25.6-25.6v-332.8
				c0.015-14.132,11.468-25.585,25.6-25.6h426.667c14.132,0.015,25.585,11.468,25.6,25.6V405.333z"/>
			<path d="M469.333,64H42.667c-4.713,0-8.533,3.82-8.533,8.533v332.8c0,4.713,3.82,8.533,8.533,8.533h426.667
				c4.713,0,8.533-3.821,8.533-8.533v-332.8C477.867,67.821,474.046,64,469.333,64z M460.8,396.8H51.2v-93.867h409.6V396.8z
				 M460.8,285.867H51.2V192h409.6V285.867z M460.8,174.933H51.2V81.067h409.6V174.933z"/>
			<path d="M256,149.333c14.138,0,25.6-11.461,25.6-25.6c-0.015-14.132-11.468-25.585-25.6-25.6c-14.138,0-25.6,11.462-25.6,25.6
				S241.862,149.333,256,149.333z M256,115.2c4.713,0,8.533,3.82,8.533,8.533c-0.006,4.71-3.823,8.527-8.533,8.533
				c-4.713,0-8.533-3.82-8.533-8.533S251.287,115.2,256,115.2z"/>
			<path d="M256,260.267c14.138,0,25.6-11.461,25.6-25.6c-0.015-14.132-11.468-25.585-25.6-25.6c-14.138,0-25.6,11.462-25.6,25.6
				S241.862,260.267,256,260.267z M256,226.133c4.713,0,8.533,3.821,8.533,8.533c-0.006,4.71-3.823,8.527-8.533,8.533
				c-4.713,0-8.533-3.82-8.533-8.533S251.287,226.133,256,226.133z"/>
			<path d="M256,371.2c14.138,0,25.6-11.462,25.6-25.6c0-14.138-11.462-25.6-25.6-25.6s-25.6,11.462-25.6,25.6
				C230.415,359.732,241.868,371.185,256,371.2z M256,337.067c4.713,0,8.533,3.821,8.533,8.533c0,4.713-3.82,8.533-8.533,8.533
				s-8.533-3.821-8.533-8.533C247.473,340.89,251.29,337.073,256,337.067z"/>
		</g>
	</g>
</g>
<g>
</g>
<g>
</g>
<g>
</g>
<g>
</g>
<g>
</g>
<g>
</g>
<g>
</g>
<g>
</g>
<g>
</g>
<g>
</g>
<g>
</g>
<g>
</g>
<g>
</g>
<g>
</g>
<g>
</g>
</svg>
