<?xml version="1.0"?>
<svg xmlns="http://www.w3.org/2000/svg" width="512" height="512" viewBox="0 0 512 512"><g><path d="M496,208H472V104a8,8,0,0,0-8-8H368a8,8,0,0,0-8,8V208H214.25l-4-16H268a28.031,28.031,0,0,0,28-28V60a28.031,28.031,0,0,0-28-28H68A28.031,28.031,0,0,0,40,60V164a28.031,28.031,0,0,0,28,28h57.75l-4,16H16a8,8,0,0,0-8,8V472a8,8,0,0,0,8,8H40a8,8,0,0,0,8-8V320H296V472a8,8,0,0,0,8,8h24a8,8,0,0,0,8-8V448H464v24a8,8,0,0,0,8,8h24a8,8,0,0,0,8-8V216A8,8,0,0,0,496,208Zm-72-96h32v96H424Zm-48,0h32v96H376ZM56,60A12.01,12.01,0,0,1,68,48H268a12.01,12.01,0,0,1,12,12v92H56ZM68,176a12.014,12.014,0,0,1-11.3-8H279.3a12.014,12.014,0,0,1-11.3,8Zm129.75,32h-59.5l4-16h51.5ZM32,464H24V256h8ZM296,304H48V256H296Zm24,160h-8V256h8Zm144-32H336V384H464Zm0-64H336V320H464Zm0-64H336V256H464Zm24,160h-8V256h8Zm0-224H24V224H488Z"/><path d="M376,288h48a8,8,0,0,0,0-16H376a8,8,0,0,0,0,16Z"/><path d="M424,336H376a8,8,0,0,0,0,16h48a8,8,0,0,0,0-16Z"/><path d="M424,400H376a8,8,0,0,0,0,16h48a8,8,0,0,0,0-16Z"/><path d="M192,272H144a8,8,0,0,0,0,16h48a8,8,0,0,0,0-16Z"/></g></svg>
