<svg height="480pt" viewBox="0 0 480.00041 480" width="480pt" xmlns="http://www.w3.org/2000/svg"><path d="m451.503906 404.089844-51.09375 10.566406c-2.792968.601562-5.601562 1.105469-8.410156 1.601562v-68c31.726562-19.191406 54.171875-50.578124 62.082031-86.800781l8.566407-38.542969c3.867187-1.0625 7.386718-3.113281 10.214843-5.953124 4.582031-4.453126 7.15625-10.574219 7.136719-16.960938 0-13.253906-10.746094-24-24-24h-184v-152c-.066406-13.226562-10.773438-23.9335938-24-24-10.132812.0429688-19.148438 6.445312-22.527344 16h-41.472656c-13.523438.054688-26.992188 1.746094-40.113281 5.039062-.824219.078126-1.636719.285157-2.398438.617188-36.527343 9.621094-68.75 31.257812-91.480469 61.425781-.789062.648438-1.449218 1.441407-1.933593 2.34375-.074219.125-.066407.277344-.128907.414063-19.347656 26.707031-30.347656 58.550781-31.609374 91.503906-3.472657 1.125-6.625 3.0625-9.199219 5.648438-4.59375 4.464843-7.167969 10.605468-7.136719 17.007812.0351562 10.65625 7.109375 20.007812 17.351562 22.945312l8.570313 38.558594c7.222656 32.988282 26.511719 62.089844 54.078125 81.59375v71.636719l-.457031-.085937-50.964844-10.542969c-1.609375-.34375-3.253906-.511719-4.898437-.503907-12.128907-.011718-22.300782 9.160157-23.539063 21.226563-1.234375 12.066406 6.859375 23.113281 18.738281 25.5625l57.449219 11.929687c53.84375 11.160157 108.683594 16.796876 163.671875 16.824219 54.996094-.011719 109.851562-5.640625 163.703125-16.800781l57.449219-11.917969c12.785156-2.664062 20.992187-15.191406 18.328125-27.976562-2.664063-12.789063-15.191407-20.992188-27.976563-18.328125zm-211.503906-380.089844c0-4.417969 3.582031-8 8-8 2.15625-.007812 4.21875.878906 5.695312 2.449219 1.492188 1.457031 2.324219 3.464843 2.304688 5.550781v152h-16zm-56 8h40v121.601562l-67.253906-119.050781c8.988281-1.667969 18.109375-2.523437 27.253906-2.550781zm-43.480469 6.351562 70.945313 125.601563-144-77.191406c19.082031-22.945313 44.488281-39.78125 73.054687-48.410157zm-82.75 61.34375 142.375 76.304688h-167.9375c1.457031-27.28125 10.289063-53.652344 25.5625-76.304688zm-33.769531 108.304688c-4.417969 0-8-3.582031-8-8-.007812-2.15625.878906-4.21875 2.449219-5.695312 1.457031-1.492188 3.464843-2.324219 5.550781-2.304688h432c4.417969 0 8 3.582031 8 8 .007812 2.15625-.878906 4.21875-2.449219 5.695312-1.457031 1.492188-3.464843 2.324219-5.550781 2.304688zm17.535156 50.03125-7.558594-34.03125h412.046876l-7.558594 34.03125c-7.199219 32.976562-28.015625 61.367188-57.304688 78.144531-.523437.230469-1.015625.523438-1.472656.863281-17.878906 9.863282-37.976562 15.011719-58.398438 14.960938h-162.609374c-23.503907.058594-46.507813-6.789062-66.152344-19.695312-.460938-.378907-.960938-.707032-1.496094-.976563-25.261719-17.203125-42.976562-43.433594-49.496094-73.296875zm302.464844 166.015625c-71.707031 9.535156-144.386719 9.183594-216-1.046875v-58.519531c10.0625 2.328125 20.351562 3.507812 30.679688 3.519531h162.640624c7.597657-.007812 15.183594-.636719 22.679688-1.886719zm113.894531 10.679687-57.429687 11.921876c-105.84375 21.992187-215.078125 21.992187-320.921875 0l-57.429688-11.921876c-3.863281-.78125-6.5-4.371093-6.085937-8.289062.414062-3.921875 3.742187-6.882812 7.683594-6.835938.539062-.011718 1.074218.042969 1.601562.160157l50.992188 10.542969c3.414062.726562 6.832031 1.382812 10.246093 2.03125 4.339844.832031 8.53125-2.011719 9.363281-6.351563.054688-.5.082032-1 .085938-1.503906v-71.679688c5.179688 2.660157 10.523438 4.984375 16 6.96875v69.03125c.015625.851563.089844 1.699219.214844 2.542969.542968 3.386719 3.199218 6.039062 6.585937 6.578125 40.007813 6.074219 80.414063 9.121094 120.878907 9.117187 37.953124-.007812 75.859374-2.679687 113.441406-8 3.417968-.5 6.113281-3.164062 6.65625-6.574218.128906-.847656.203125-1.703125.222656-2.5625v-67.503906c5.449219-1.605469 10.792969-3.550782 16-5.820313v69.421875c0 4.417969 3.582031 8 8 8 .492188-.011719.984375-.058594 1.472656-.136719l69.253906-14.101562c2.289063-.480469 4.667969.109375 6.464844 1.597656 1.789063 1.441406 2.824219 3.621094 2.808594 5.921875-.027344 3.609375-2.570312 6.710938-6.105469 7.445312zm0 0"/></svg>