<svg xmlns="http://www.w3.org/2000/svg" viewBox="0 0 36 32"><defs><style>.a{fill:#d8d8d8;}</style></defs><path class="a" d="M87,350H81.9a1.507,1.507,0,0,0-.132-.294l-5-8a1.5,1.5,0,0,0-2.547,1.588L78.418,350H65.582l4.191-6.706a1.5,1.5,0,0,0-2.547-1.588l-5,8A1.506,1.506,0,0,0,62.1,350H57a3,3,0,0,0-3,3v2a3,3,0,0,0,2.317,2.915l3.8,12.934A3,3,0,0,0,63,373H81a3,3,0,0,0,2.879-2.151l3.8-12.934A3,3,0,0,0,90,355v-2A3,3,0,0,0,87,350Zm-30,3H87v2H57Zm24,17-18,0L59.47,358H84.53Z" transform="translate(-54 -341)"/></svg>