<?xml version="1.0" standalone="no"?>
<!DOCTYPE svg PUBLIC "-//W3C//DTD SVG 20010904//EN"
 "http://www.w3.org/TR/2001/REC-SVG-20010904/DTD/svg10.dtd">
<svg version="1.0" xmlns="http://www.w3.org/2000/svg"
 width="512.000000pt" height="512.000000pt" viewBox="0 0 512.000000 512.000000"
 preserveAspectRatio="xMidYMid meet">
<metadata>
Created by potrace 1.11, written by Peter Selinger 2001-2013
</metadata>
<g transform="translate(0.000000,512.000000) scale(0.100000,-0.100000)"
fill="#000000" stroke="none">
<path d="M2507 4804 c-1 -1 -49 -4 -107 -7 -344 -20 -768 -164 -1065 -363
-148 -98 -226 -163 -365 -303 -274 -275 -458 -589 -565 -962 -158 -548 -101
-1128 162 -1642 156 -305 401 -593 672 -790 281 -205 571 -330 931 -402 8 -1
39 -6 68 -10 46 -6 52 -5 53 12 3 51 4 931 1 949 -3 16 -20 25 -78 42 -559
165 -936 680 -919 1257 7 229 69 439 188 635 57 93 98 143 202 245 193 190
409 298 700 350 137 24 341 13 499 -26 419 -106 755 -420 895 -837 17 -51 31
-100 31 -108 0 -9 11 -14 33 -15 36 0 836 0 911 0 l49 1 -7 48 c-3 26 -8 58
-11 72 -3 14 -8 41 -11 60 -3 19 -17 75 -31 125 -109 396 -299 723 -587 1010
-418 417 -961 647 -1554 659 -51 1 -94 1 -95 0z"/>
<path d="M3821 2270 c-4 -3 -20 -45 -35 -95 -121 -396 -446 -720 -845 -842
-75 -23 -91 -31 -92 -48 -1 -27 -1 -879 0 -927 1 -32 4 -38 24 -38 56 0 377
78 452 109 11 5 52 21 90 37 561 223 1033 700 1251 1264 46 120 67 189 98 320
33 143 42 220 24 221 -45 4 -961 3 -967 -1z"/>
</g>
</svg>
